#usda 1.0
(
    upAxis = "Y"
)

def SkelRoot "Character"
{
    def Skeleton "Skel" (
        prepend apiSchemas = ["SkelBindingAPI"]
    )
    {
        uniform matrix4d[] bindTransforms = [( (1, 0, 0, 0), (0, 1, 0, 0), (0, 0, 1, 0), (0, 0, 0, 1) )]
        uniform token[] joints = ["Root"]
        uniform matrix4d[] restTransforms = [( (1, 0, 0, 0), (0, 1, 0, 0), (0, 0, 1, 0), (0, 0, 0, 1) )]
        rel skel:animationSource = </Character/Skel/Anim>

        def SkelAnimation "Anim"
        {
            uniform token[] blendShapes = ["flatten"]
            float[] blendShapeWeights = [1]
        }
    }

    def Mesh "Body" (
        prepend apiSchemas = ["SkelBindingAPI"]
    )
    {
        int[] faceVertexCounts = [4, 4, 4, 4, 4, 4, 4, 4, 4, 4, 4, 4, 4, 4, 4, 4, 4, 4, 4, 4, 4, 4, 4, 4, 4, 4, 4, 4, 4, 4, 4, 4, 4, 4, 4, 4, 4, 4, 4, 4, 4, 4, 4, 4, 4, 4, 4, 4, 4, 4, 4, 4, 4, 4, 4, 4, 4, 4, 4, 4, 4, 4, 4, 4, 4, 4, 4, 4, 4, 4, 4, 4, 4, 4, 4, 4, 4, 4, 4, 4, 4, 4, 4, 4, 4, 4, 4, 4, 4, 4, 4, 4, 4, 4, 4, 4, 4, 4, 4, 4, 4, 4, 4, 4, 4, 4, 4, 4, 4, 4, 4, 4, 4, 4, 4, 4, 4, 4, 4, 4, 4, 4, 4, 4, 4, 4, 4, 4, 4, 4, 4, 4, 4, 4, 4, 4, 4, 4, 4, 4, 4, 4, 4, 4, 4, 4, 4, 4, 4, 4, 4, 4, 4, 4, 4, 4, 4, 4, 4, 4, 4, 4, 4, 4, 4, 4, 4, 4, 4, 4, 4, 4, 4, 4, 4, 4, 4, 4, 4, 4, 4, 4, 4, 4, 4, 4, 4, 4, 4, 4, 4, 4, 4, 4, 4, 4, 4, 4, 4, 4, 4, 4, 4, 4, 4, 4, 4, 4, 4, 4, 4, 4, 4, 4, 4, 4, 4, 4, 4, 4, 4, 4, 4, 4, 4, 4, 4, 4, 4, 4, 4, 4, 4, 4, 4, 4, 4, 4, 4, 4, 4, 4, 4, 4, 4, 4, 4, 4, 4, 4, 4, 4, 4, 4, 4, 4]
        int[] faceVertexIndices = [0, 1, 18, 17, 1, 2, 19, 18, 2, 3, 20, 19, 3, 4, 21, 20, 4, 5, 22, 21, 5, 6, 23, 22, 6, 7, 24, 23, 7, 8, 25, 24, 8, 9, 26, 25, 9, 10, 27, 26, 10, 11, 28, 27, 11, 12, 29, 28, 12, 13, 30, 29, 13, 14, 31, 30, 14, 15, 32, 31, 15, 16, 33, 32, 17, 18, 35, 34, 18, 19, 36, 35, 19, 20, 37, 36, 20, 21, 38, 37, 21, 22, 39, 38, 22, 23, 40, 39, 23, 24, 41, 40, 24, 25, 42, 41, 25, 26, 43, 42, 26, 27, 44, 43, 27, 28, 45, 44, 28, 29, 46, 45, 29, 30, 47, 46, 30, 31, 48, 47, 31, 32, 49, 48, 32, 33, 50, 49, 34, 35, 52, 51, 35, 36, 53, 52, 36, 37, 54, 53, 37, 38, 55, 54, 38, 39, 56, 55, 39, 40, 57, 56, 40, 41, 58, 57, 41, 42, 59, 58, 42, 43, 60, 59, 43, 44, 61, 60, 44, 45, 62, 61, 45, 46, 63, 62, 46, 47, 64, 63, 47, 48, 65, 64, 48, 49, 66, 65, 49, 50, 67, 66, 51, 52, 69, 68, 52, 53, 70, 69, 53, 54, 71, 70, 54, 55, 72, 71, 55, 56, 73, 72, 56, 57, 74, 73, 57, 58, 75, 74, 58, 59, 76, 75, 59, 60, 77, 76, 60, 61, 78, 77, 61, 62, 79, 78, 62, 63, 80, 79, 63, 64, 81, 80, 64, 65, 82, 81, 65, 66, 83, 82, 66, 67, 84, 83, 68, 69, 86, 85, 69, 70, 87, 86, 70, 71, 88, 87, 71, 72, 89, 88, 72, 73, 90, 89, 73, 74, 91, 90, 74, 75, 92, 91, 75, 76, 93, 92, 76, 77, 94, 93, 77, 78, 95, 94, 78, 79, 96, 95, 79, 80, 97, 96, 80, 81, 98, 97, 81, 82, 99, 98, 82, 83, 100, 99, 83, 84, 101, 100, 85, 86, 103, 102, 86, 87, 104, 103, 87, 88, 105, 104, 88, 89, 106, 105, 89, 90, 107, 106, 90, 91, 108, 107, 91, 92, 109, 108, 92, 93, 110, 109, 93, 94, 111, 110, 94, 95, 112, 111, 95, 96, 113, 112, 96, 97, 114, 113, 97, 98, 115, 114, 98, 99, 116, 115, 99, 100, 117, 116, 100, 101, 118, 117, 102, 103, 120, 119, 103, 104, 121, 120, 104, 105, 122, 121, 105, 106, 123, 122, 106, 107, 124, 123, 107, 108, 125, 124, 108, 109, 126, 125, 109, 110, 127, 126, 110, 111, 128, 127, 111, 112, 129, 128, 112, 113, 130, 129, 113, 114, 131, 130, 114, 115, 132, 131, 115, 116, 133, 132, 116, 117, 134, 133, 117, 118, 135, 134, 119, 120, 137, 136, 120, 121, 138, 137, 121, 122, 139, 138, 122, 123, 140, 139, 123, 124, 141, 140, 124, 125, 142, 141, 125, 126, 143, 142, 126, 127, 144, 143, 127, 128, 145, 144, 128, 129, 146, 145, 129, 130, 147, 146, 130, 131, 148, 147, 131, 132, 149, 148, 132, 133, 150, 149, 133, 134, 151, 150, 134, 135, 152, 151, 136, 137, 154, 153, 137, 138, 155, 154, 138, 139, 156, 155, 139, 140, 157, 156, 140, 141, 158, 157, 141, 142, 159, 158, 142, 143, 160, 159, 143, 144, 161, 160, 144, 145, 162, 161, 145, 146, 163, 162, 146, 147, 164, 163, 147, 148, 165, 164, 148, 149, 166, 165, 149, 150, 167, 166, 150, 151, 168, 167, 151, 152, 169, 168, 153, 154, 171, 170, 154, 155, 172, 171, 155, 156, 173, 172, 156, 157, 174, 173, 157, 158, 175, 174, 158, 159, 176, 175, 159, 160, 177, 176, 160, 161, 178, 177, 161, 162, 179, 178, 162, 163, 180, 179, 163, 164, 181, 180, 164, 165, 182, 181, 165, 166, 183, 182, 166, 167, 184, 183, 167, 168, 185, 184, 168, 169, 186, 185, 170, 171, 188, 187, 171, 172, 189, 188, 172, 173, 190, 189, 173, 174, 191, 190, 174, 175, 192, 191, 175, 176, 193, 192, 176, 177, 194, 193, 177, 178, 195, 194, 178, 179, 196, 195, 179, 180, 197, 196, 180, 181, 198, 197, 181, 182, 199, 198, 182, 183, 200, 199, 183, 184, 201, 200, 184, 185, 202, 201, 185, 186, 203, 202, 187, 188, 205, 204, 188, 189, 206, 205, 189, 190, 207, 206, 190, 191, 208, 207, 191, 192, 209, 208, 192, 193, 210, 209, 193, 194, 211, 210, 194, 195, 212, 211, 195, 196, 213, 212, 196, 197, 214, 213, 197, 198, 215, 214, 198, 199, 216, 215, 199, 200, 217, 216, 200, 201, 218, 217, 201, 202, 219, 218, 202, 203, 220, 219, 204, 205, 222, 221, 205, 206, 223, 222, 206, 207, 224, 223, 207, 208, 225, 224, 208, 209, 226, 225, 209, 210, 227, 226, 210, 211, 228, 227, 211, 212, 229, 228, 212, 213, 230, 229, 213, 214, 231, 230, 214, 215, 232, 231, 215, 216, 233, 232, 216, 217, 234, 233, 217, 218, 235, 234, 218, 219, 236, 235, 219, 220, 237, 236, 221, 222, 239, 238, 222, 223, 240, 239, 223, 224, 241, 240, 224, 225, 242, 241, 225, 226, 243, 242, 226, 227, 244, 243, 227, 228, 245, 244, 228, 229, 246, 245, 229, 230, 247, 246, 230, 231, 248, 247, 231, 232, 249, 248, 232, 233, 250, 249, 233, 234, 251, 250, 234, 235, 252, 251, 235, 236, 253, 252, 236, 237, 254, 253, 238, 239, 256, 255, 239, 240, 257, 256, 240, 241, 258, 257, 241, 242, 259, 258, 242, 243, 260, 259, 243, 244, 261, 260, 244, 245, 262, 261, 245, 246, 263, 262, 246, 247, 264, 263, 247, 248, 265, 264, 248, 249, 266, 265, 249, 250, 267, 266, 250, 251, 268, 267, 251, 252, 269, 268, 252, 253, 270, 269, 253, 254, 271, 270, 255, 256, 273, 272, 256, 257, 274, 273, 257, 258, 275, 274, 258, 259, 276, 275, 259, 260, 277, 276, 260, 261, 278, 277, 261, 262, 279, 278, 262, 263, 280, 279, 263, 264, 281, 280, 264, 265, 282, 281, 265, 266, 283, 282, 266, 267, 284, 283, 267, 268, 285, 284, 268, 269, 286, 285, 269, 270, 287, 286, 270, 271, 288, 287]
        normal3f[] normals = [(-0.70710677, 0, -0.70710677), (-0.6585046, 0, -0.7525767), (-0.6, 0, -0.8), (-0.52999896, 0, -0.8479983), (-0.4472136, 0, -0.8944272), (-0.35112345, 0, -0.9363292), (-0.24253562, 0, -0.9701425), (-0.12403473, 0, -0.99227786), (0, 0, -1), (0.12403473, 0, -0.99227786), (0.24253562, 0, -0.9701425), (0.35112345, 0, -0.9363292), (0.4472136, 0, -0.8944272), (0.52999896, 0, -0.8479983), (0.6, 0, -0.8), (0.6585046, 0, -0.7525767), (0.70710677, 0, -0.70710677), (-0.7525767, 0, -0.6585046), (-0.70710677, 0, -0.70710677), (-0.65079135, 0, -0.7592566), (-0.5812382, 0, -0.81373346), (-0.49613893, 0, -0.86824316), (-0.375, 0.30618623, -0.875), (-0.25, 0.4145781, -0.875), (-0.125, 0.4677072, -0.875), (0, 0.48412293, -0.875), (0.125, 0.4677072, -0.875), (0.25, 0.4145781, -0.875), (0.375, 0.30618623, -0.875), (0.49613893, 0, -0.86824316), (0.5812382, 0, -0.81373346), (0.65079135, 0, -0.7592566), (0.70710677, 0, -0.70710677), (0.7525767, 0, -0.6585046), (-0.8, 0, -0.6), (-0.7592566, 0, -0.65079135), (-0.70710677, 0, -0.70710677), (-0.625, 0.21650635, -0.75), (-0.5, 0.4330127, -0.75), (-0.375, 0.5448624, -0.75), (-0.25, 0.61237246, -0.75), (-0.125, 0.649519, -0.75), (0, 0.6614378, -0.75), (0.125, 0.649519, -0.75), (0.25, 0.61237246, -0.75), (0.375, 0.5448624, -0.75), (0.5, 0.4330127, -0.75), (0.625, 0.21650635, -0.75), (0.70710677, 0, -0.70710677), (0.7592566, 0, -0.65079135), (0.8, 0, -0.6), (-0.8479983, 0, -0.52999896), (-0.81373346, 0, -0.5812382), (-0.75, 0.21650635, -0.625), (-0.625, 0.4677072, -0.625), (-0.5, 0.59947896, -0.625), (-0.375, 0.6846532, -0.625), (-0.25, 0.73951, -0.625), (-0.125, 0.77055174, -0.625), (0, 0.78062475, -0.625), (0.125, 0.77055174, -0.625), (0.25, 0.73951, -0.625), (0.375, 0.6846532, -0.625), (0.5, 0.59947896, -0.625), (0.625, 0.4677072, -0.625), (0.75, 0.21650635, -0.625), (0.81373346, 0, -0.5812382), (0.8479983, 0, -0.52999896), (-0.8944272, 0, -0.4472136), (-0.86824316, 0, -0.49613893), (-0.75, 0.4330127, -0.5), (-0.625, 0.59947896, -0.5), (-0.5, 0.70710677, -0.5), (-0.375, 0.78062475, -0.5), (-0.25, 0.8291562, -0.5), (-0.125, 0.85695684, -0.5), (0, 0.8660254, -0.5), (0.125, 0.85695684, -0.5), (0.25, 0.8291562, -0.5), (0.375, 0.78062475, -0.5), (0.5, 0.70710677, -0.5), (0.625, 0.59947896, -0.5), (0.75, 0.4330127, -0.5), (0.86824316, 0, -0.49613893), (0.8944272, 0, -0.4472136), (-0.9363292, 0, -0.35112345), (-0.875, 0.30618623, -0.375), (-0.75, 0.5448624, -0.375), (-0.625, 0.6846532, -0.375), (-0.5, 0.78062475, -0.375), (-0.375, 0.84779125, -0.375), (-0.25, 0.89267856, -0.375), (-0.125, 0.91855866, -0.375), (0, 0.9270248, -0.375), (0.125, 0.91855866, -0.375), (0.25, 0.89267856, -0.375), (0.375, 0.84779125, -0.375), (0.5, 0.78062475, -0.375), (0.625, 0.6846532, -0.375), (0.75, 0.5448624, -0.375), (0.875, 0.30618623, -0.375), (0.9363292, 0, -0.35112345), (-0.9701425, 0, -0.24253562), (-0.875, 0.4145781, -0.25), (-0.75, 0.61237246, -0.25), (-0.625, 0.73951, -0.25), (-0.5, 0.8291562, -0.25), (-0.375, 0.89267856, -0.25), (-0.25, 0.9354144, -0.25), (-0.125, 0.9601432, -0.25), (0, 0.96824586, -0.25), (0.125, 0.9601432, -0.25), (0.25, 0.9354144, -0.25), (0.375, 0.89267856, -0.25), (0.5, 0.8291562, -0.25), (0.625, 0.73951, -0.25), (0.75, 0.61237246, -0.25), (0.875, 0.4145781, -0.25), (0.9701425, 0, -0.24253562), (-0.99227786, 0, -0.12403473), (-0.875, 0.4677072, -0.125), (-0.75, 0.649519, -0.125), (-0.625, 0.77055174, -0.125), (-0.5, 0.85695684, -0.125), (-0.375, 0.91855866, -0.125), (-0.25, 0.9601432, -0.125), (-0.125, 0.98425096, -0.125), (0, 0.99215674, -0.125), (0.125, 0.98425096, -0.125), (0.25, 0.9601432, -0.125), (0.375, 0.91855866, -0.125), (0.5, 0.85695684, -0.125), (0.625, 0.77055174, -0.125), (0.75, 0.649519, -0.125), (0.875, 0.4677072, -0.125), (0.99227786, 0, -0.12403473), (-1, 0, 0), (-0.875, 0.48412293, 0), (-0.75, 0.6614378, 0), (-0.625, 0.78062475, 0), (-0.5, 0.8660254, 0), (-0.375, 0.9270248, 0), (-0.25, 0.96824586, 0), (-0.125, 0.99215674, 0), (0, 1, 0), (0.125, 0.99215674, 0), (0.25, 0.96824586, 0), (0.375, 0.9270248, 0), (0.5, 0.8660254, 0), (0.625, 0.78062475, 0), (0.75, 0.6614378, 0), (0.875, 0.48412293, 0), (1, 0, 0), (-0.99227786, 0, 0.12403473), (-0.875, 0.4677072, 0.125), (-0.75, 0.649519, 0.125), (-0.625, 0.77055174, 0.125), (-0.5, 0.85695684, 0.125), (-0.375, 0.91855866, 0.125), (-0.25, 0.9601432, 0.125), (-0.125, 0.98425096, 0.125), (0, 0.99215674, 0.125), (0.125, 0.98425096, 0.125), (0.25, 0.9601432, 0.125), (0.375, 0.91855866, 0.125), (0.5, 0.85695684, 0.125), (0.625, 0.77055174, 0.125), (0.75, 0.649519, 0.125), (0.875, 0.4677072, 0.125), (0.99227786, 0, 0.12403473), (-0.9701425, 0, 0.24253562), (-0.875, 0.4145781, 0.25), (-0.75, 0.61237246, 0.25), (-0.625, 0.73951, 0.25), (-0.5, 0.8291562, 0.25), (-0.375, 0.89267856, 0.25), (-0.25, 0.9354144, 0.25), (-0.125, 0.9601432, 0.25), (0, 0.96824586, 0.25), (0.125, 0.9601432, 0.25), (0.25, 0.9354144, 0.25), (0.375, 0.89267856, 0.25), (0.5, 0.8291562, 0.25), (0.625, 0.73951, 0.25), (0.75, 0.61237246, 0.25), (0.875, 0.4145781, 0.25), (0.9701425, 0, 0.24253562), (-0.9363292, 0, 0.35112345), (-0.875, 0.30618623, 0.375), (-0.75, 0.5448624, 0.375), (-0.625, 0.6846532, 0.375), (-0.5, 0.78062475, 0.375), (-0.375, 0.84779125, 0.375), (-0.25, 0.89267856, 0.375), (-0.125, 0.91855866, 0.375), (0, 0.9270248, 0.375), (0.125, 0.91855866, 0.375), (0.25, 0.89267856, 0.375), (0.375, 0.84779125, 0.375), (0.5, 0.78062475, 0.375), (0.625, 0.6846532, 0.375), (0.75, 0.5448624, 0.375), (0.875, 0.30618623, 0.375), (0.9363292, 0, 0.35112345), (-0.8944272, 0, 0.4472136), (-0.86824316, 0, 0.49613893), (-0.75, 0.4330127, 0.5), (-0.625, 0.59947896, 0.5), (-0.5, 0.70710677, 0.5), (-0.375, 0.78062475, 0.5), (-0.25, 0.8291562, 0.5), (-0.125, 0.85695684, 0.5), (0, 0.8660254, 0.5), (0.125, 0.85695684, 0.5), (0.25, 0.8291562, 0.5), (0.375, 0.78062475, 0.5), (0.5, 0.70710677, 0.5), (0.625, 0.59947896, 0.5), (0.75, 0.4330127, 0.5), (0.86824316, 0, 0.49613893), (0.8944272, 0, 0.4472136), (-0.8479983, 0, 0.52999896), (-0.81373346, 0, 0.5812382), (-0.75, 0.21650635, 0.625), (-0.625, 0.4677072, 0.625), (-0.5, 0.59947896, 0.625), (-0.375, 0.6846532, 0.625), (-0.25, 0.73951, 0.625), (-0.125, 0.77055174, 0.625), (0, 0.78062475, 0.625), (0.125, 0.77055174, 0.625), (0.25, 0.73951, 0.625), (0.375, 0.6846532, 0.625), (0.5, 0.59947896, 0.625), (0.625, 0.4677072, 0.625), (0.75, 0.21650635, 0.625), (0.81373346, 0, 0.5812382), (0.8479983, 0, 0.52999896), (-0.8, 0, 0.6), (-0.7592566, 0, 0.65079135), (-0.70710677, 0, 0.70710677), (-0.625, 0.21650635, 0.75), (-0.5, 0.4330127, 0.75), (-0.375, 0.5448624, 0.75), (-0.25, 0.61237246, 0.75), (-0.125, 0.649519, 0.75), (0, 0.6614378, 0.75), (0.125, 0.649519, 0.75), (0.25, 0.61237246, 0.75), (0.375, 0.5448624, 0.75), (0.5, 0.4330127, 0.75), (0.625, 0.21650635, 0.75), (0.70710677, 0, 0.70710677), (0.7592566, 0, 0.65079135), (0.8, 0, 0.6), (-0.7525767, 0, 0.6585046), (-0.70710677, 0, 0.70710677), (-0.65079135, 0, 0.7592566), (-0.5812382, 0, 0.81373346), (-0.49613893, 0, 0.86824316), (-0.375, 0.30618623, 0.875), (-0.25, 0.4145781, 0.875), (-0.125, 0.4677072, 0.875), (0, 0.48412293, 0.875), (0.125, 0.4677072, 0.875), (0.25, 0.4145781, 0.875), (0.375, 0.30618623, 0.875), (0.49613893, 0, 0.86824316), (0.5812382, 0, 0.81373346), (0.65079135, 0, 0.7592566), (0.70710677, 0, 0.70710677), (0.7525767, 0, 0.6585046), (-0.70710677, 0, 0.70710677), (-0.6585046, 0, 0.7525767), (-0.6, 0, 0.8), (-0.52999896, 0, 0.8479983), (-0.4472136, 0, 0.8944272), (-0.35112345, 0, 0.9363292), (-0.24253562, 0, 0.9701425), (-0.12403473, 0, 0.99227786), (0, 0, 1), (0.12403473, 0, 0.99227786), (0.24253562, 0, 0.9701425), (0.35112345, 0, 0.9363292), (0.4472136, 0, 0.8944272), (0.52999896, 0, 0.8479983), (0.6, 0, 0.8), (0.6585046, 0, 0.7525767), (0.70710677, 0, 0.70710677)] (
            interpolation = "vertex"
        )
        point3f[] points = [(-1, 0, -1), (-0.875, 0, -1), (-0.75, 0, -1), (-0.625, 0, -1), (-0.5, 0, -1), (-0.375, 0, -1), (-0.25, 0, -1), (-0.125, 0, -1), (0, 0, -1), (0.125, 0, -1), (0.25, 0, -1), (0.375, 0, -1), (0.5, 0, -1), (0.625, 0, -1), (0.75, 0, -1), (0.875, 0, -1), (1, 0, -1), (-1, 0, -0.875), (-0.875, 0, -0.875), (-0.75, 0, -0.875), (-0.625, 0, -0.875), (-0.5, 0, -0.875), (-0.375, 0.30618623, -0.875), (-0.25, 0.4145781, -0.875), (-0.125, 0.4677072, -0.875), (0, 0.48412293, -0.875), (0.125, 0.4677072, -0.875), (0.25, 0.4145781, -0.875), (0.375, 0.30618623, -0.875), (0.5, 0, -0.875), (0.625, 0, -0.875), (0.75, 0, -0.875), (0.875, 0, -0.875), (1, 0, -0.875), (-1, 0, -0.75), (-0.875, 0, -0.75), (-0.75, 0, -0.75), (-0.625, 0.21650635, -0.75), (-0.5, 0.4330127, -0.75), (-0.375, 0.5448624, -0.75), (-0.25, 0.61237246, -0.75), (-0.125, 0.649519, -0.75), (0, 0.6614378, -0.75), (0.125, 0.649519, -0.75), (0.25, 0.61237246, -0.75), (0.375, 0.5448624, -0.75), (0.5, 0.4330127, -0.75), (0.625, 0.21650635, -0.75), (0.75, 0, -0.75), (0.875, 0, -0.75), (1, 0, -0.75), (-1, 0, -0.625), (-0.875, 0, -0.625), (-0.75, 0.21650635, -0.625), (-0.625, 0.4677072, -0.625), (-0.5, 0.59947896, -0.625), (-0.375, 0.6846532, -0.625), (-0.25, 0.73951, -0.625), (-0.125, 0.77055174, -0.625), (0, 0.78062475, -0.625), (0.125, 0.77055174, -0.625), (0.25, 0.73951, -0.625), (0.375, 0.6846532, -0.625), (0.5, 0.59947896, -0.625), (0.625, 0.4677072, -0.625), (0.75, 0.21650635, -0.625), (0.875, 0, -0.625), (1, 0, -0.625), (-1, 0, -0.5), (-0.875, 0, -0.5), (-0.75, 0.4330127, -0.5), (-0.625, 0.59947896, -0.5), (-0.5, 0.70710677, -0.5), (-0.375, 0.78062475, -0.5), (-0.25, 0.8291562, -0.5), (-0.125, 0.85695684, -0.5), (0, 0.8660254, -0.5), (0.125, 0.85695684, -0.5), (0.25, 0.8291562, -0.5), (0.375, 0.78062475, -0.5), (0.5, 0.70710677, -0.5), (0.625, 0.59947896, -0.5), (0.75, 0.4330127, -0.5), (0.875, 0, -0.5), (1, 0, -0.5), (-1, 0, -0.375), (-0.875, 0.30618623, -0.375), (-0.75, 0.5448624, -0.375), (-0.625, 0.6846532, -0.375), (-0.5, 0.78062475, -0.375), (-0.375, 0.84779125, -0.375), (-0.25, 0.89267856, -0.375), (-0.125, 0.91855866, -0.375), (0, 0.9270248, -0.375), (0.125, 0.91855866, -0.375), (0.25, 0.89267856, -0.375), (0.375, 0.84779125, -0.375), (0.5, 0.78062475, -0.375), (0.625, 0.6846532, -0.375), (0.75, 0.5448624, -0.375), (0.875, 0.30618623, -0.375), (1, 0, -0.375), (-1, 0, -0.25), (-0.875, 0.4145781, -0.25), (-0.75, 0.61237246, -0.25), (-0.625, 0.73951, -0.25), (-0.5, 0.8291562, -0.25), (-0.375, 0.89267856, -0.25), (-0.25, 0.9354144, -0.25), (-0.125, 0.9601432, -0.25), (0, 0.96824586, -0.25), (0.125, 0.9601432, -0.25), (0.25, 0.9354144, -0.25), (0.375, 0.89267856, -0.25), (0.5, 0.8291562, -0.25), (0.625, 0.73951, -0.25), (0.75, 0.61237246, -0.25), (0.875, 0.4145781, -0.25), (1, 0, -0.25), (-1, 0, -0.125), (-0.875, 0.4677072, -0.125), (-0.75, 0.649519, -0.125), (-0.625, 0.77055174, -0.125), (-0.5, 0.85695684, -0.125), (-0.375, 0.91855866, -0.125), (-0.25, 0.9601432, -0.125), (-0.125, 0.98425096, -0.125), (0, 0.99215674, -0.125), (0.125, 0.98425096, -0.125), (0.25, 0.9601432, -0.125), (0.375, 0.91855866, -0.125), (0.5, 0.85695684, -0.125), (0.625, 0.77055174, -0.125), (0.75, 0.649519, -0.125), (0.875, 0.4677072, -0.125), (1, 0, -0.125), (-1, 0, 0), (-0.875, 0.48412293, 0), (-0.75, 0.6614378, 0), (-0.625, 0.78062475, 0), (-0.5, 0.8660254, 0), (-0.375, 0.9270248, 0), (-0.25, 0.96824586, 0), (-0.125, 0.99215674, 0), (0, 1, 0), (0.125, 0.99215674, 0), (0.25, 0.96824586, 0), (0.375, 0.9270248, 0), (0.5, 0.8660254, 0), (0.625, 0.78062475, 0), (0.75, 0.6614378, 0), (0.875, 0.48412293, 0), (1, 0, 0), (-1, 0, 0.125), (-0.875, 0.4677072, 0.125), (-0.75, 0.649519, 0.125), (-0.625, 0.77055174, 0.125), (-0.5, 0.85695684, 0.125), (-0.375, 0.91855866, 0.125), (-0.25, 0.9601432, 0.125), (-0.125, 0.98425096, 0.125), (0, 0.99215674, 0.125), (0.125, 0.98425096, 0.125), (0.25, 0.9601432, 0.125), (0.375, 0.91855866, 0.125), (0.5, 0.85695684, 0.125), (0.625, 0.77055174, 0.125), (0.75, 0.649519, 0.125), (0.875, 0.4677072, 0.125), (1, 0, 0.125), (-1, 0, 0.25), (-0.875, 0.4145781, 0.25), (-0.75, 0.61237246, 0.25), (-0.625, 0.73951, 0.25), (-0.5, 0.8291562, 0.25), (-0.375, 0.89267856, 0.25), (-0.25, 0.9354144, 0.25), (-0.125, 0.9601432, 0.25), (0, 0.96824586, 0.25), (0.125, 0.9601432, 0.25), (0.25, 0.9354144, 0.25), (0.375, 0.89267856, 0.25), (0.5, 0.8291562, 0.25), (0.625, 0.73951, 0.25), (0.75, 0.61237246, 0.25), (0.875, 0.4145781, 0.25), (1, 0, 0.25), (-1, 0, 0.375), (-0.875, 0.30618623, 0.375), (-0.75, 0.5448624, 0.375), (-0.625, 0.6846532, 0.375), (-0.5, 0.78062475, 0.375), (-0.375, 0.84779125, 0.375), (-0.25, 0.89267856, 0.375), (-0.125, 0.91855866, 0.375), (0, 0.9270248, 0.375), (0.125, 0.91855866, 0.375), (0.25, 0.89267856, 0.375), (0.375, 0.84779125, 0.375), (0.5, 0.78062475, 0.375), (0.625, 0.6846532, 0.375), (0.75, 0.5448624, 0.375), (0.875, 0.30618623, 0.375), (1, 0, 0.375), (-1, 0, 0.5), (-0.875, 0, 0.5), (-0.75, 0.4330127, 0.5), (-0.625, 0.59947896, 0.5), (-0.5, 0.70710677, 0.5), (-0.375, 0.78062475, 0.5), (-0.25, 0.8291562, 0.5), (-0.125, 0.85695684, 0.5), (0, 0.8660254, 0.5), (0.125, 0.85695684, 0.5), (0.25, 0.8291562, 0.5), (0.375, 0.78062475, 0.5), (0.5, 0.70710677, 0.5), (0.625, 0.59947896, 0.5), (0.75, 0.4330127, 0.5), (0.875, 0, 0.5), (1, 0, 0.5), (-1, 0, 0.625), (-0.875, 0, 0.625), (-0.75, 0.21650635, 0.625), (-0.625, 0.4677072, 0.625), (-0.5, 0.59947896, 0.625), (-0.375, 0.6846532, 0.625), (-0.25, 0.73951, 0.625), (-0.125, 0.77055174, 0.625), (0, 0.78062475, 0.625), (0.125, 0.77055174, 0.625), (0.25, 0.73951, 0.625), (0.375, 0.6846532, 0.625), (0.5, 0.59947896, 0.625), (0.625, 0.4677072, 0.625), (0.75, 0.21650635, 0.625), (0.875, 0, 0.625), (1, 0, 0.625), (-1, 0, 0.75), (-0.875, 0, 0.75), (-0.75, 0, 0.75), (-0.625, 0.21650635, 0.75), (-0.5, 0.4330127, 0.75), (-0.375, 0.5448624, 0.75), (-0.25, 0.61237246, 0.75), (-0.125, 0.649519, 0.75), (0, 0.6614378, 0.75), (0.125, 0.649519, 0.75), (0.25, 0.61237246, 0.75), (0.375, 0.5448624, 0.75), (0.5, 0.4330127, 0.75), (0.625, 0.21650635, 0.75), (0.75, 0, 0.75), (0.875, 0, 0.75), (1, 0, 0.75), (-1, 0, 0.875), (-0.875, 0, 0.875), (-0.75, 0, 0.875), (-0.625, 0, 0.875), (-0.5, 0, 0.875), (-0.375, 0.30618623, 0.875), (-0.25, 0.4145781, 0.875), (-0.125, 0.4677072, 0.875), (0, 0.48412293, 0.875), (0.125, 0.4677072, 0.875), (0.25, 0.4145781, 0.875), (0.375, 0.30618623, 0.875), (0.5, 0, 0.875), (0.625, 0, 0.875), (0.75, 0, 0.875), (0.875, 0, 0.875), (1, 0, 0.875), (-1, 0, 1), (-0.875, 0, 1), (-0.75, 0, 1), (-0.625, 0, 1), (-0.5, 0, 1), (-0.375, 0, 1), (-0.25, 0, 1), (-0.125, 0, 1), (0, 0, 1), (0.125, 0, 1), (0.25, 0, 1), (0.375, 0, 1), (0.5, 0, 1), (0.625, 0, 1), (0.75, 0, 1), (0.875, 0, 1), (1, 0, 1)]
        int[] primvars:skel:jointIndices = [0, 0, 0, 0, 0, 0, 0, 0, 0, 0, 0, 0, 0, 0, 0, 0, 0, 0, 0, 0, 0, 0, 0, 0, 0, 0, 0, 0, 0, 0, 0, 0, 0, 0, 0, 0, 0, 0, 0, 0, 0, 0, 0, 0, 0, 0, 0, 0, 0, 0, 0, 0, 0, 0, 0, 0, 0, 0, 0, 0, 0, 0, 0, 0, 0, 0, 0, 0, 0, 0, 0, 0, 0, 0, 0, 0, 0, 0, 0, 0, 0, 0, 0, 0, 0, 0, 0, 0, 0, 0, 0, 0, 0, 0, 0, 0, 0, 0, 0, 0, 0, 0, 0, 0, 0, 0, 0, 0, 0, 0, 0, 0, 0, 0, 0, 0, 0, 0, 0, 0, 0, 0, 0, 0, 0, 0, 0, 0, 0, 0, 0, 0, 0, 0, 0, 0, 0, 0, 0, 0, 0, 0, 0, 0, 0, 0, 0, 0, 0, 0, 0, 0, 0, 0, 0, 0, 0, 0, 0, 0, 0, 0, 0, 0, 0, 0, 0, 0, 0, 0, 0, 0, 0, 0, 0, 0, 0, 0, 0, 0, 0, 0, 0, 0, 0, 0, 0, 0, 0, 0, 0, 0, 0, 0, 0, 0, 0, 0, 0, 0, 0, 0, 0, 0, 0, 0, 0, 0, 0, 0, 0, 0, 0, 0, 0, 0, 0, 0, 0, 0, 0, 0, 0, 0, 0, 0, 0, 0, 0, 0, 0, 0, 0, 0, 0, 0, 0, 0, 0, 0, 0, 0, 0, 0, 0, 0, 0, 0, 0, 0, 0, 0, 0, 0, 0, 0, 0, 0, 0, 0, 0, 0, 0, 0, 0, 0, 0, 0, 0, 0, 0, 0, 0, 0, 0, 0, 0, 0, 0, 0, 0, 0, 0, 0, 0, 0, 0, 0, 0] (
            elementSize = 1
            interpolation = "vertex"
        )
        float[] primvars:skel:jointWeights = [1, 1, 1, 1, 1, 1, 1, 1, 1, 1, 1, 1, 1, 1, 1, 1, 1, 1, 1, 1, 1, 1, 1, 1, 1, 1, 1, 1, 1, 1, 1, 1, 1, 1, 1, 1, 1, 1, 1, 1, 1, 1, 1, 1, 1, 1, 1, 1, 1, 1, 1, 1, 1, 1, 1, 1, 1, 1, 1, 1, 1, 1, 1, 1, 1, 1, 1, 1, 1, 1, 1, 1, 1, 1, 1, 1, 1, 1, 1, 1, 1, 1, 1, 1, 1, 1, 1, 1, 1, 1, 1, 1, 1, 1, 1, 1, 1, 1, 1, 1, 1, 1, 1, 1, 1, 1, 1, 1, 1, 1, 1, 1, 1, 1, 1, 1, 1, 1, 1, 1, 1, 1, 1, 1, 1, 1, 1, 1, 1, 1, 1, 1, 1, 1, 1, 1, 1, 1, 1, 1, 1, 1, 1, 1, 1, 1, 1, 1, 1, 1, 1, 1, 1, 1, 1, 1, 1, 1, 1, 1, 1, 1, 1, 1, 1, 1, 1, 1, 1, 1, 1, 1, 1, 1, 1, 1, 1, 1, 1, 1, 1, 1, 1, 1, 1, 1, 1, 1, 1, 1, 1, 1, 1, 1, 1, 1, 1, 1, 1, 1, 1, 1, 1, 1, 1, 1, 1, 1, 1, 1, 1, 1, 1, 1, 1, 1, 1, 1, 1, 1, 1, 1, 1, 1, 1, 1, 1, 1, 1, 1, 1, 1, 1, 1, 1, 1, 1, 1, 1, 1, 1, 1, 1, 1, 1, 1, 1, 1, 1, 1, 1, 1, 1, 1, 1, 1, 1, 1, 1, 1, 1, 1, 1, 1, 1, 1, 1, 1, 1, 1, 1, 1, 1, 1, 1, 1, 1, 1, 1, 1, 1, 1, 1, 1, 1, 1, 1, 1, 1] (
            elementSize = 1
            interpolation = "vertex"
        )
        uniform token[] skel:blendShapes = ["flatten"]
        rel skel:blendShapeTargets = </Character/Body/flatten>
        rel skel:skeleton = </Character/Skel>

        def BlendShape "flatten"
        {
            uniform vector3f[] normalOffsets = [(1, 1, 1), (0.875, 1, 1), (0.75, 1, 1), (0.625, 1, 1), (0.5, 1, 1), (0.375, 1, 1), (0.25, 1, 1), (0.125, 1, 1), (-0, 1, 1), (-0.125, 1, 1), (-0.25, 1, 1), (-0.375, 1, 1), (-0.5, 1, 1), (-0.625, 1, 1), (-0.75, 1, 1), (-0.875, 1, 1), (-1, 1, 1), (1, 1, 0.875), (0.875, 1, 0.875), (0.75, 1, 0.875), (0.625, 1, 0.875), (0.5, 1, 0.875), (0.375, 0.6938138, 0.875), (0.25, 0.5854219, 0.875), (0.125, 0.53229284, 0.875), (-0, 0.51587707, 0.875), (-0.125, 0.53229284, 0.875), (-0.25, 0.5854219, 0.875), (-0.375, 0.6938138, 0.875), (-0.5, 1, 0.875), (-0.625, 1, 0.875), (-0.75, 1, 0.875), (-0.875, 1, 0.875), (-1, 1, 0.875), (1, 1, 0.75), (0.875, 1, 0.75), (0.75, 1, 0.75), (0.625, 0.78349364, 0.75), (0.5, 0.5669873, 0.75), (0.375, 0.4551376, 0.75), (0.25, 0.38762754, 0.75), (0.125, 0.35048097, 0.75), (-0, 0.3385622, 0.75), (-0.125, 0.35048097, 0.75), (-0.25, 0.38762754, 0.75), (-0.375, 0.4551376, 0.75), (-0.5, 0.5669873, 0.75), (-0.625, 0.78349364, 0.75), (-0.75, 1, 0.75), (-0.875, 1, 0.75), (-1, 1, 0.75), (1, 1, 0.625), (0.875, 1, 0.625), (0.75, 0.78349364, 0.625), (0.625, 0.53229284, 0.625), (0.5, 0.40052104, 0.625), (0.375, 0.31534678, 0.625), (0.25, 0.26049, 0.625), (0.125, 0.22944826, 0.625), (-0, 0.21937525, 0.625), (-0.125, 0.22944826, 0.625), (-0.25, 0.26049, 0.625), (-0.375, 0.31534678, 0.625), (-0.5, 0.40052104, 0.625), (-0.625, 0.53229284, 0.625), (-0.75, 0.78349364, 0.625), (-0.875, 1, 0.625), (-1, 1, 0.625), (1, 1, 0.5), (0.875, 1, 0.5), (0.75, 0.5669873, 0.5), (0.625, 0.40052104, 0.5), (0.5, 0.29289323, 0.5), (0.375, 0.21937525, 0.5), (0.25, 0.17084378, 0.5), (0.125, 0.14304316, 0.5), (-0, 0.13397461, 0.5), (-0.125, 0.14304316, 0.5), (-0.25, 0.17084378, 0.5), (-0.375, 0.21937525, 0.5), (-0.5, 0.29289323, 0.5), (-0.625, 0.40052104, 0.5), (-0.75, 0.5669873, 0.5), (-0.875, 1, 0.5), (-1, 1, 0.5), (1, 1, 0.375), (0.875, 0.6938138, 0.375), (0.75, 0.4551376, 0.375), (0.625, 0.31534678, 0.375), (0.5, 0.21937525, 0.375), (0.375, 0.15220875, 0.375), (0.25, 0.10732144, 0.375), (0.125, 0.08144134, 0.375), (-0, 0.07297522, 0.375), (-0.125, 0.08144134, 0.375), (-0.25, 0.10732144, 0.375), (-0.375, 0.15220875, 0.375), (-0.5, 0.21937525, 0.375), (-0.625, 0.31534678, 0.375), (-0.75, 0.4551376, 0.375), (-0.875, 0.6938138, 0.375), (-1, 1, 0.375), (1, 1, 0.25), (0.875, 0.5854219, 0.25), (0.75, 0.38762754, 0.25), (0.625, 0.26049, 0.25), (0.5, 0.17084378, 0.25), (0.375, 0.10732144, 0.25), (0.25, 0.064585626, 0.25), (0.125, 0.03985679, 0.25), (-0, 0.031754136, 0.25), (-0.125, 0.03985679, 0.25), (-0.25, 0.064585626, 0.25), (-0.375, 0.10732144, 0.25), (-0.5, 0.17084378, 0.25), (-0.625, 0.26049, 0.25), (-0.75, 0.38762754, 0.25), (-0.875, 0.5854219, 0.25), (-1, 1, 0.25), (1, 1, 0.125), (0.875, 0.53229284, 0.125), (0.75, 0.35048097, 0.125), (0.625, 0.22944826, 0.125), (0.5, 0.14304316, 0.125), (0.375, 0.08144134, 0.125), (0.25, 0.03985679, 0.125), (0.125, 0.015749037, 0.125), (-0, 0.007843256, 0.125), (-0.125, 0.015749037, 0.125), (-0.25, 0.03985679, 0.125), (-0.375, 0.08144134, 0.125), (-0.5, 0.14304316, 0.125), (-0.625, 0.22944826, 0.125), (-0.75, 0.35048097, 0.125), (-0.875, 0.53229284, 0.125), (-1, 1, 0.125), (1, 1, -0), (0.875, 0.51587707, -0), (0.75, 0.3385622, -0), (0.625, 0.21937525, -0), (0.5, 0.13397461, -0), (0.375, 0.07297522, -0), (0.25, 0.031754136, -0), (0.125, 0.007843256, -0), (-0, 0, -0), (-0.125, 0.007843256, -0), (-0.25, 0.031754136, -0), (-0.375, 0.07297522, -0), (-0.5, 0.13397461, -0), (-0.625, 0.21937525, -0), (-0.75, 0.3385622, -0), (-0.875, 0.51587707, -0), (-1, 1, -0), (1, 1, -0.125), (0.875, 0.53229284, -0.125), (0.75, 0.35048097, -0.125), (0.625, 0.22944826, -0.125), (0.5, 0.14304316, -0.125), (0.375, 0.08144134, -0.125), (0.25, 0.03985679, -0.125), (0.125, 0.015749037, -0.125), (-0, 0.007843256, -0.125), (-0.125, 0.015749037, -0.125), (-0.25, 0.03985679, -0.125), (-0.375, 0.08144134, -0.125), (-0.5, 0.14304316, -0.125), (-0.625, 0.22944826, -0.125), (-0.75, 0.35048097, -0.125), (-0.875, 0.53229284, -0.125), (-1, 1, -0.125), (1, 1, -0.25), (0.875, 0.5854219, -0.25), (0.75, 0.38762754, -0.25), (0.625, 0.26049, -0.25), (0.5, 0.17084378, -0.25), (0.375, 0.10732144, -0.25), (0.25, 0.064585626, -0.25), (0.125, 0.03985679, -0.25), (-0, 0.031754136, -0.25), (-0.125, 0.03985679, -0.25), (-0.25, 0.064585626, -0.25), (-0.375, 0.10732144, -0.25), (-0.5, 0.17084378, -0.25), (-0.625, 0.26049, -0.25), (-0.75, 0.38762754, -0.25), (-0.875, 0.5854219, -0.25), (-1, 1, -0.25), (1, 1, -0.375), (0.875, 0.6938138, -0.375), (0.75, 0.4551376, -0.375), (0.625, 0.31534678, -0.375), (0.5, 0.21937525, -0.375), (0.375, 0.15220875, -0.375), (0.25, 0.10732144, -0.375), (0.125, 0.08144134, -0.375), (-0, 0.07297522, -0.375), (-0.125, 0.08144134, -0.375), (-0.25, 0.10732144, -0.375), (-0.375, 0.15220875, -0.375), (-0.5, 0.21937525, -0.375), (-0.625, 0.31534678, -0.375), (-0.75, 0.4551376, -0.375), (-0.875, 0.6938138, -0.375), (-1, 1, -0.375), (1, 1, -0.5), (0.875, 1, -0.5), (0.75, 0.5669873, -0.5), (0.625, 0.40052104, -0.5), (0.5, 0.29289323, -0.5), (0.375, 0.21937525, -0.5), (0.25, 0.17084378, -0.5), (0.125, 0.14304316, -0.5), (-0, 0.13397461, -0.5), (-0.125, 0.14304316, -0.5), (-0.25, 0.17084378, -0.5), (-0.375, 0.21937525, -0.5), (-0.5, 0.29289323, -0.5), (-0.625, 0.40052104, -0.5), (-0.75, 0.5669873, -0.5), (-0.875, 1, -0.5), (-1, 1, -0.5), (1, 1, -0.625), (0.875, 1, -0.625), (0.75, 0.78349364, -0.625), (0.625, 0.53229284, -0.625), (0.5, 0.40052104, -0.625), (0.375, 0.31534678, -0.625), (0.25, 0.26049, -0.625), (0.125, 0.22944826, -0.625), (-0, 0.21937525, -0.625), (-0.125, 0.22944826, -0.625), (-0.25, 0.26049, -0.625), (-0.375, 0.31534678, -0.625), (-0.5, 0.40052104, -0.625), (-0.625, 0.53229284, -0.625), (-0.75, 0.78349364, -0.625), (-0.875, 1, -0.625), (-1, 1, -0.625), (1, 1, -0.75), (0.875, 1, -0.75), (0.75, 1, -0.75), (0.625, 0.78349364, -0.75), (0.5, 0.5669873, -0.75), (0.375, 0.4551376, -0.75), (0.25, 0.38762754, -0.75), (0.125, 0.35048097, -0.75), (-0, 0.3385622, -0.75), (-0.125, 0.35048097, -0.75), (-0.25, 0.38762754, -0.75), (-0.375, 0.4551376, -0.75), (-0.5, 0.5669873, -0.75), (-0.625, 0.78349364, -0.75), (-0.75, 1, -0.75), (-0.875, 1, -0.75), (-1, 1, -0.75), (1, 1, -0.875), (0.875, 1, -0.875), (0.75, 1, -0.875), (0.625, 1, -0.875), (0.5, 1, -0.875), (0.375, 0.6938138, -0.875), (0.25, 0.5854219, -0.875), (0.125, 0.53229284, -0.875), (-0, 0.51587707, -0.875), (-0.125, 0.53229284, -0.875), (-0.25, 0.5854219, -0.875), (-0.375, 0.6938138, -0.875), (-0.5, 1, -0.875), (-0.625, 1, -0.875), (-0.75, 1, -0.875), (-0.875, 1, -0.875), (-1, 1, -0.875), (1, 1, -1), (0.875, 1, -1), (0.75, 1, -1), (0.625, 1, -1), (0.5, 1, -1), (0.375, 1, -1), (0.25, 1, -1), (0.125, 1, -1), (-0, 1, -1), (-0.125, 1, -1), (-0.25, 1, -1), (-0.375, 1, -1), (-0.5, 1, -1), (-0.625, 1, -1), (-0.75, 1, -1), (-0.875, 1, -1), (-1, 1, -1)]
            uniform vector3f[] offsets = [(0, -0, 0), (0, -0, 0), (0, -0, 0), (0, -0, 0), (0, -0, 0), (0, -0, 0), (0, -0, 0), (0, -0, 0), (0, -0, 0), (0, -0, 0), (0, -0, 0), (0, -0, 0), (0, -0, 0), (0, -0, 0), (0, -0, 0), (0, -0, 0), (0, -0, 0), (0, -0, 0), (0, -0, 0), (0, -0, 0), (0, -0, 0), (0, -0, 0), (0, -0.30618623, 0), (0, -0.4145781, 0), (0, -0.4677072, 0), (0, -0.48412293, 0), (0, -0.4677072, 0), (0, -0.4145781, 0), (0, -0.30618623, 0), (0, -0, 0), (0, -0, 0), (0, -0, 0), (0, -0, 0), (0, -0, 0), (0, -0, 0), (0, -0, 0), (0, -0, 0), (0, -0.21650635, 0), (0, -0.4330127, 0), (0, -0.5448624, 0), (0, -0.61237246, 0), (0, -0.649519, 0), (0, -0.6614378, 0), (0, -0.649519, 0), (0, -0.61237246, 0), (0, -0.5448624, 0), (0, -0.4330127, 0), (0, -0.21650635, 0), (0, -0, 0), (0, -0, 0), (0, -0, 0), (0, -0, 0), (0, -0, 0), (0, -0.21650635, 0), (0, -0.4677072, 0), (0, -0.59947896, 0), (0, -0.6846532, 0), (0, -0.73951, 0), (0, -0.77055174, 0), (0, -0.78062475, 0), (0, -0.77055174, 0), (0, -0.73951, 0), (0, -0.6846532, 0), (0, -0.59947896, 0), (0, -0.4677072, 0), (0, -0.21650635, 0), (0, -0, 0), (0, -0, 0), (0, -0, 0), (0, -0, 0), (0, -0.4330127, 0), (0, -0.59947896, 0), (0, -0.70710677, 0), (0, -0.78062475, 0), (0, -0.8291562, 0), (0, -0.85695684, 0), (0, -0.8660254, 0), (0, -0.85695684, 0), (0, -0.8291562, 0), (0, -0.78062475, 0), (0, -0.70710677, 0), (0, -0.59947896, 0), (0, -0.4330127, 0), (0, -0, 0), (0, -0, 0), (0, -0, 0), (0, -0.30618623, 0), (0, -0.5448624, 0), (0, -0.6846532, 0), (0, -0.78062475, 0), (0, -0.84779125, 0), (0, -0.89267856, 0), (0, -0.91855866, 0), (0, -0.9270248, 0), (0, -0.91855866, 0), (0, -0.89267856, 0), (0, -0.84779125, 0), (0, -0.78062475, 0), (0, -0.6846532, 0), (0, -0.5448624, 0), (0, -0.30618623, 0), (0, -0, 0), (0, -0, 0), (0, -0.4145781, 0), (0, -0.61237246, 0), (0, -0.73951, 0), (0, -0.8291562, 0), (0, -0.89267856, 0), (0, -0.9354144, 0), (0, -0.9601432, 0), (0, -0.96824586, 0), (0, -0.9601432, 0), (0, -0.9354144, 0), (0, -0.89267856, 0), (0, -0.8291562, 0), (0, -0.73951, 0), (0, -0.61237246, 0), (0, -0.4145781, 0), (0, -0, 0), (0, -0, 0), (0, -0.4677072, 0), (0, -0.649519, 0), (0, -0.77055174, 0), (0, -0.85695684, 0), (0, -0.91855866, 0), (0, -0.9601432, 0), (0, -0.98425096, 0), (0, -0.99215674, 0), (0, -0.98425096, 0), (0, -0.9601432, 0), (0, -0.91855866, 0), (0, -0.85695684, 0), (0, -0.77055174, 0), (0, -0.649519, 0), (0, -0.4677072, 0), (0, -0, 0), (0, -0, 0), (0, -0.48412293, 0), (0, -0.6614378, 0), (0, -0.78062475, 0), (0, -0.8660254, 0), (0, -0.9270248, 0), (0, -0.96824586, 0), (0, -0.99215674, 0), (0, -1, 0), (0, -0.99215674, 0), (0, -0.96824586, 0), (0, -0.9270248, 0), (0, -0.8660254, 0), (0, -0.78062475, 0), (0, -0.6614378, 0), (0, -0.48412293, 0), (0, -0, 0), (0, -0, 0), (0, -0.4677072, 0), (0, -0.649519, 0), (0, -0.77055174, 0), (0, -0.85695684, 0), (0, -0.91855866, 0), (0, -0.9601432, 0), (0, -0.98425096, 0), (0, -0.99215674, 0), (0, -0.98425096, 0), (0, -0.9601432, 0), (0, -0.91855866, 0), (0, -0.85695684, 0), (0, -0.77055174, 0), (0, -0.649519, 0), (0, -0.4677072, 0), (0, -0, 0), (0, -0, 0), (0, -0.4145781, 0), (0, -0.61237246, 0), (0, -0.73951, 0), (0, -0.8291562, 0), (0, -0.89267856, 0), (0, -0.9354144, 0), (0, -0.9601432, 0), (0, -0.96824586, 0), (0, -0.9601432, 0), (0, -0.9354144, 0), (0, -0.89267856, 0), (0, -0.8291562, 0), (0, -0.73951, 0), (0, -0.61237246, 0), (0, -0.4145781, 0), (0, -0, 0), (0, -0, 0), (0, -0.30618623, 0), (0, -0.5448624, 0), (0, -0.6846532, 0), (0, -0.78062475, 0), (0, -0.84779125, 0), (0, -0.89267856, 0), (0, -0.91855866, 0), (0, -0.9270248, 0), (0, -0.91855866, 0), (0, -0.89267856, 0), (0, -0.84779125, 0), (0, -0.78062475, 0), (0, -0.6846532, 0), (0, -0.5448624, 0), (0, -0.30618623, 0), (0, -0, 0), (0, -0, 0), (0, -0, 0), (0, -0.4330127, 0), (0, -0.59947896, 0), (0, -0.70710677, 0), (0, -0.78062475, 0), (0, -0.8291562, 0), (0, -0.85695684, 0), (0, -0.8660254, 0), (0, -0.85695684, 0), (0, -0.8291562, 0), (0, -0.78062475, 0), (0, -0.70710677, 0), (0, -0.59947896, 0), (0, -0.4330127, 0), (0, -0, 0), (0, -0, 0), (0, -0, 0), (0, -0, 0), (0, -0.21650635, 0), (0, -0.4677072, 0), (0, -0.59947896, 0), (0, -0.6846532, 0), (0, -0.73951, 0), (0, -0.77055174, 0), (0, -0.78062475, 0), (0, -0.77055174, 0), (0, -0.73951, 0), (0, -0.6846532, 0), (0, -0.59947896, 0), (0, -0.4677072, 0), (0, -0.21650635, 0), (0, -0, 0), (0, -0, 0), (0, -0, 0), (0, -0, 0), (0, -0, 0), (0, -0.21650635, 0), (0, -0.4330127, 0), (0, -0.5448624, 0), (0, -0.61237246, 0), (0, -0.649519, 0), (0, -0.6614378, 0), (0, -0.649519, 0), (0, -0.61237246, 0), (0, -0.5448624, 0), (0, -0.4330127, 0), (0, -0.21650635, 0), (0, -0, 0), (0, -0, 0), (0, -0, 0), (0, -0, 0), (0, -0, 0), (0, -0, 0), (0, -0, 0), (0, -0, 0), (0, -0.30618623, 0), (0, -0.4145781, 0), (0, -0.4677072, 0), (0, -0.48412293, 0), (0, -0.4677072, 0), (0, -0.4145781, 0), (0, -0.30618623, 0), (0, -0, 0), (0, -0, 0), (0, -0, 0), (0, -0, 0), (0, -0, 0), (0, -0, 0), (0, -0, 0), (0, -0, 0), (0, -0, 0), (0, -0, 0), (0, -0, 0), (0, -0, 0), (0, -0, 0), (0, -0, 0), (0, -0, 0), (0, -0, 0), (0, -0, 0), (0, -0, 0), (0, -0, 0), (0, -0, 0), (0, -0, 0), (0, -0, 0)]
        }
    }
}

